<?xml version="1.0" encoding="utf-8"?>
<!-- Generator: Adobe Illustrator 21.0.0, SVG Export Plug-In . SVG Version: 6.00 Build 0)  -->
<svg version="1.1" id="Layer_1" xmlns="http://www.w3.org/2000/svg" xmlns:xlink="http://www.w3.org/1999/xlink" x="0px" y="0px"
	 viewBox="0 0 100 100" style="enable-background:new 0 0 100 100;" xml:space="preserve">
<style type="text/css">
	.st0{fill:#727272;}
	.st1{fill:#FFFFFF;}
</style>
<circle class="st0" cx="50.1" cy="50.5" r="48.4"/>
<path class="st1" d="M68,73c-0.6,0.1-1.2,0.1-1.8,0.1c-8.5,0-15.4-6.9-15.4-15.4s6.9-15.4,15.4-15.4c0.6,0,1.2,0,1.8,0.1V21.9H55.4
	H39.9H27.4v54.3H68V73z M31.8,32.6h30.3v6.3H31.8V32.6z M31.8,45.5h19.6c-1.6,1-3.5,4.7-3.6,6.3h-16C31.8,51.8,31.8,45.5,31.8,45.5z
	 M31.8,63v-5.1h15.4c0,1.8,0.4,3.5,1,5.1H31.8z"/>
<g>
	<ellipse transform="matrix(4.141014e-03 -1 1 4.141014e-03 7.8268 123.7957)" class="st1" cx="66.1" cy="58" rx="2" ry="2"/>
	<path class="st1" d="M66,45.9c-6.6,0-12,5.4-12,12s5.4,12,12,12s12-5.4,12-12S72.6,45.9,66,45.9z M72.7,59.9L71,62.8
		c-0.1,0.1-0.2,0.1-0.3,0.1l-1.8-1.1c-0.3,0.2-0.6,0.4-1,0.5v2.1l0,0c0,0.1-0.1,0.2-0.2,0.2h-3.4l0,0c-0.1,0-0.2-0.1-0.2-0.2v-2.1
		c-0.3-0.1-0.7-0.3-1-0.5l-1.8,1.1l0,0c-0.1,0.1-0.3,0-0.3-0.1l-1.7-2.9l0,0c-0.1-0.1,0-0.3,0.1-0.3l1.8-1.1c0-0.4,0-0.7,0-1.1
		l-1.8-1.1l0,0c-0.1-0.1-0.1-0.2-0.1-0.3l1.7-2.9c0-0.1,0.2-0.1,0.3-0.1l1.8,1.1c0.3-0.2,0.6-0.4,1-0.5v-2.1l0,0
		c0-0.1,0.1-0.2,0.2-0.2h3.4l0,0c0.1,0,0.2,0.1,0.2,0.2v2.1c0.3,0.1,0.7,0.3,1,0.5l1.8-1.1l0,0c0.1-0.1,0.3,0,0.3,0.1l1.7,2.9l0,0
		c0.1,0.1,0,0.3-0.1,0.3l-1.8,1.1c0,0.4,0,0.7,0,1.1l1.8,1.1l0,0C72.7,59.6,72.8,59.8,72.7,59.9z"/>
</g>
</svg>
