<?xml version="1.0" encoding="utf-8"?>
<!-- Generator: Adobe Illustrator 21.0.0, SVG Export Plug-In . SVG Version: 6.00 Build 0)  -->
<svg version="1.1" id="Layer_1" xmlns="http://www.w3.org/2000/svg" xmlns:xlink="http://www.w3.org/1999/xlink" x="0px" y="0px"
	 viewBox="0 0 100 100" style="enable-background:new 0 0 100 100;" xml:space="preserve">
<style type="text/css">
	.st0{fill:#727272;}
	.st1{display:none;}
	.st2{display:inline;fill:#FFFFFF;}
	.st3{fill:#FFFFFF;}
</style>
<circle class="st0" cx="50" cy="50.5" r="48.4"/>
<g transform="translate(0,-952.36218)" class="st1">
	<path class="st2" d="M33.3,973.6c-3.3,0-6.3,3-6.3,6.3s3,6.3,6.3,6.3h14.6h13.9H73c-3.3,0-6.3-3-6.3-6.3s3-6.3,6.3-6.3H33.3z
		 M27,984.2v43.1c0,2.7,2.2,4.9,4.9,4.9H73v-44.6H61.8v16.7l-7-4.9l-7,4.9v-16.7H33.3C30.7,987.5,28.4,986.2,27,984.2L27,984.2z"/>
</g>
<g>
	<path class="st3" d="M85.7,45.8c-0.5-0.6-1.4-0.7-2.1-0.2l-3.9,3.1L51.5,71.2l-2.8,2.2c-0.2,0.2-0.5,0.2-0.8,0.1l0,0
		c-2.4-1.1-4.7-2.1-7.1-3.2c-3.3-1.5-21.2-8.3-22.4-8.9c-0.7-0.4-1.1-1.2-1.3-1.9c-0.5-1.8-0.2-3.9,0.1-5.7l0,0c0.1-0.8,1-1.3,1.8-1
		c0,0,24.3,9.5,24.5,9.6c0.5,0.2,2.8,1,3,1.1c0.1,0,0.2,0.1,0.2,0.1c0.3,0.1,0.6,0.1,0.8,0.1c0.3-0.1,0.6-0.2,1-0.4
		c0.2-0.2,0.4-0.3,0.6-0.5c2.9-2.2,5.8-4.4,8.7-6.6c0.9-0.7,1.8-1.3,2.7-2c0.1-0.1,0.1-0.1,0.2-0.2c2.5-1.9,5-3.8,7.6-5.7
		c0.1-0.1,0.3-0.2,0.4-0.3c3.9-2.9,7.7-5.8,11.6-8.7c1.4-1,1.3-2.5-0.4-3.2c-1.4-0.5-2.7-1.1-4-1.6l0,0c-2-0.8-4-1.6-6-2.3
		c-3.2-1.3-6.5-2.6-9.7-3.8c-2.4-0.9-4.9-1.7-7.3-2.6c-2.2-0.7-4.3-0.6-6.2,0.9c-0.1,0.1-0.1,0.1-0.2,0.1c-3.1,2.1-6.1,4.2-9.2,6.2
		c-3.5,2.3-6.9,4.7-10.3,7.1c-0.6,0.4-1.2,0.8-1.7,1.2c-2.9,2-5.7,4.2-8.5,6.3l-0.1,0.1c-0.9,0.7-1.5,1.6-1.8,2.6
		c-0.1,0.2-0.1,0.4-0.2,0.5c-0.2,0.8-0.4,1.5-0.5,2.3c-0.2,1.5-0.2,3,0,4.5c0.1,0.7,0.2,1.4,0.3,2.1c0.1,0.7,0.3,1.6,0.5,2.3
		c0.2,0.6,0.6,1.1,1.1,1.4c0.5,0.4,1.2,0.5,1.8,0.9c0.7,0.4,1.5,0.8,2.3,1.2c1.2,0.6,21,8.5,22.7,9.3c1.5,0.7,3.1,1.2,4.7,1.8
		c1.1,0.4,2.2,0.3,3.1-0.5c1-0.8,2-1.7,2.9-2.6l32-25.5C86.1,47.4,86.2,46.4,85.7,45.8z"/>
</g>
</svg>
