<?xml version="1.0" encoding="utf-8"?>
<!-- Generator: Adobe Illustrator 21.0.0, SVG Export Plug-In . SVG Version: 6.00 Build 0)  -->
<svg version="1.1" id="Layer_1" xmlns="http://www.w3.org/2000/svg" xmlns:xlink="http://www.w3.org/1999/xlink" x="0px" y="0px"
	 viewBox="0 0 100 100" style="enable-background:new 0 0 100 100;" xml:space="preserve">
<style type="text/css">
	.st0{fill:#727272;}
	.st1{fill:#FFFFFF;}
</style>
<circle class="st0" cx="51" cy="51" r="48.4"/>
<path class="st1" d="M80.2,29.7V27h-8.7v-5.8h-6.3V27H54.7v-5.8h-6.3V27H37.9v-5.8h-6.3V27h-8.8v2.9v4V39h57.4v-9.1
	C80.2,29.8,80.2,29.8,80.2,29.7z"/>
<path class="st1" d="M22.8,41.6v12.8l0,0v23.1h10.7l0,0h36.7l0,0h10v-2.8v-0.1v-33H22.8z M47.9,71.2L36,59.1l3.6-3.7l8.3,7.8
	l15.5-16.7l4.2,3.4L47.9,71.2z"/>
</svg>
