<?xml version="1.0" encoding="utf-8"?>
<!-- Generator: Adobe Illustrator 21.0.0, SVG Export Plug-In . SVG Version: 6.00 Build 0)  -->
<svg version="1.1" id="Layer_1" xmlns="http://www.w3.org/2000/svg" xmlns:xlink="http://www.w3.org/1999/xlink" x="0px" y="0px"
	 viewBox="0 0 100 100" style="enable-background:new 0 0 100 100;" xml:space="preserve">
<style type="text/css">
	.st0{fill:#727272;}
	.st1{fill:#FFFFFF;}
</style>
<circle class="st0" cx="50.1" cy="50.5" r="48.4"/>
<g>
	<path class="st1" d="M22,22.8v11.4h56.3v1.6H22v43.5h56.3V22.8H22z M27.4,29.4c-1,0-1.7-0.7-1.7-1.7s0.7-1.7,1.7-1.7
		s1.7,0.7,1.7,1.7C29.1,28.7,28.4,29.4,27.4,29.4z M34.4,29.4c-0.9,0-1.7-0.7-1.7-1.7s0.8-1.7,1.7-1.7c1,0,1.7,0.7,1.7,1.7
		C36,28.7,35.3,29.4,34.4,29.4z M41.4,29.4c-1,0-1.7-0.7-1.7-1.7s0.7-1.7,1.7-1.7s1.7,0.7,1.7,1.7C43.1,28.7,42.4,29.4,41.4,29.4z
		 M31.3,40.5h18.1c0.9,0,1.6,0.7,1.6,1.6c0,0.9-0.7,1.6-1.6,1.6H31.3c-0.9,0-1.6-0.7-1.6-1.6C29.7,41.2,30.4,40.5,31.3,40.5z
		 M31.3,48.9h27.2c0.9,0,1.6,0.7,1.6,1.6c0,0.9-0.7,1.6-1.6,1.6H31.3c-0.9,0-1.6-0.7-1.6-1.6C29.7,49.6,30.4,48.9,31.3,48.9z
		 M31.3,57.2h13.6c0.9,0,1.6,0.7,1.6,1.6c0,0.9-0.7,1.6-1.6,1.6H31.3c-0.9,0-1.6-0.7-1.6-1.6C29.7,57.9,30.4,57.2,31.3,57.2z
		 M68.9,68.8H31.3c-0.9,0-1.6-0.7-1.6-1.6s0.7-1.6,1.6-1.6H69c0.9,0,1.6,0.7,1.5,1.6C70.5,68.1,69.8,68.8,68.9,68.8z"/>
	<rect x="21.8" y="34.2" class="st1" width="0.1" height="1.6"/>
</g>
</svg>
