<?xml version="1.0" encoding="utf-8"?>
<!-- Generator: Adobe Illustrator 21.0.0, SVG Export Plug-In . SVG Version: 6.00 Build 0)  -->
<svg version="1.1" id="Layer_1" xmlns="http://www.w3.org/2000/svg" xmlns:xlink="http://www.w3.org/1999/xlink" x="0px" y="0px"
	 viewBox="0 0 100 100" style="enable-background:new 0 0 100 100;" xml:space="preserve">
<style type="text/css">
	.st0{fill:#727272;}
	.st1{display:none;}
	.st2{display:inline;fill:#FFFFFF;}
	.st3{fill:#FFFFFF;}
</style>
<circle class="st0" cx="50" cy="50.5" r="48.4"/>
<g transform="translate(0,-952.36218)" class="st1">
	<path class="st2" d="M33.3,973.6c-3.3,0-6.3,3-6.3,6.3s3,6.3,6.3,6.3h14.6h13.9H73c-3.3,0-6.3-3-6.3-6.3s3-6.3,6.3-6.3H33.3z
		 M27,984.2v43.1c0,2.7,2.2,4.9,4.9,4.9H73v-44.6H61.8v16.7l-7-4.9l-7,4.9v-16.7H33.3C30.7,987.5,28.4,986.2,27,984.2L27,984.2z"/>
</g>
<polygon class="st3" points="83.6,74 72.4,54.5 69.1,60.4 53.5,51.4 53.5,33.5 60.2,33.5 49,14 37.8,33.5 44.5,33.5 44.5,51.4 
	28.9,60.4 25.6,54.5 14.4,74 36.8,74 33.5,68.2 49,59.2 64.5,68.2 61.2,74 "/>
</svg>
