<?xml version="1.0" encoding="utf-8"?>
<!-- Generator: Adobe Illustrator 21.0.0, SVG Export Plug-In . SVG Version: 6.00 Build 0)  -->
<svg version="1.1" id="Layer_1" xmlns="http://www.w3.org/2000/svg" xmlns:xlink="http://www.w3.org/1999/xlink" x="0px" y="0px"
	 viewBox="0 0 100 100" style="enable-background:new 0 0 100 100;" xml:space="preserve">
<style type="text/css">
	.st0{fill:#727272;}
	.st1{fill:#FFFFFF;}
</style>
<circle class="st0" cx="50.1" cy="50.5" r="48.4"/>
<g>
	<polygon class="st1" points="67,31.4 67,75.8 32.1,75.8 32.1,79.8 71,79.8 71,31.4 	"/>
	<path class="st1" d="M65,27.4h-4.9l0.1,14c0,2.2-1.8,4-4,4s-4-1.8-4-4V31.2h2v10.3c0,1.1,0.9,2,2,2s2-0.9,2-2l-0.1-14.1H52v-3.3
		c0-1.7,1.4-3,3-3c1.7,0,3,1.4,3,3v3.3h2v-3.3c0-2.8-2.3-5-5-5c-2.8,0-5,2.3-5,5v3.3H28.1v46.4H65V27.4z"/>
</g>
</svg>
