<?xml version="1.0" encoding="utf-8"?>
<!-- Generator: Adobe Illustrator 21.0.0, SVG Export Plug-In . SVG Version: 6.00 Build 0)  -->
<svg version="1.1" id="Layer_1" xmlns="http://www.w3.org/2000/svg" xmlns:xlink="http://www.w3.org/1999/xlink" x="0px" y="0px"
	 viewBox="0 0 100 100" style="enable-background:new 0 0 100 100;" xml:space="preserve">
<style type="text/css">
	.st0{fill:#727272;}
	.st1{fill:#FFFFFF;}
	.st2{fill:none;stroke:#727272;stroke-miterlimit:10;}
</style>
<circle class="st0" cx="50" cy="50" r="48.4"/>
<path class="st1" d="M77.2,67c0,1.9-1.5,3.4-3.3,3.4H26.1c-1.8,0-3.3-1.5-3.3-3.4V33c0-1.9,1.5-3.4,3.3-3.4h47.8
	c1.8,0,3.3,1.5,3.3,3.4C77.2,33,77.2,67,77.2,67z"/>
<path class="st2" d="M42.4,42.6h2.7 M42.4,47.5h2.7 M42.4,52.5h2.7 M42.4,57.4h2.7 M37.3,42.6H40 M37.3,47.5H40 M37.3,52.5H40
	 M37.3,57.4H40 M31.8,42.6h2.7 M31.8,47.5h2.7 M31.8,52.5h2.7 M31.8,57.4h2.7"/>
<path class="st0" d="M54.1,50.1c0-0.6-0.5-1.2-1.2-1.2h-1.2c-0.6,0-1.1,0.5-1.2,1.2v9H54C54.1,59.1,54.1,50.1,54.1,50.1z M59.7,47.1
	c-0.1-0.6-0.5-1.2-1.2-1.2h-1.2c-0.6,0-1.1,0.5-1.2,1.2v12.1h3.5L59.7,47.1L59.7,47.1z M65.3,42.8c0-0.6-0.5-1.2-1.2-1.2h-1.2
	c-0.6,0-1.2,0.6-1.2,1.2v16.3h3.5C65.3,59.1,65.3,42.8,65.3,42.8z M70.9,39.9C70.9,39.9,70.9,39.8,70.9,39.9c0-0.7-0.5-1.2-1.2-1.2
	h-1.2c-0.6,0-1.1,0.5-1.2,1.2v19.4h3.5C70.9,59.2,70.9,39.9,70.9,39.9z"/>
</svg>
