<?xml version="1.0" encoding="utf-8"?>
<!-- Generator: Adobe Illustrator 21.0.0, SVG Export Plug-In . SVG Version: 6.00 Build 0)  -->
<svg version="1.1" id="Layer_1" xmlns="http://www.w3.org/2000/svg" xmlns:xlink="http://www.w3.org/1999/xlink" x="0px" y="0px"
	 viewBox="0 0 100 100" style="enable-background:new 0 0 100 100;" xml:space="preserve">
<style type="text/css">
	.st0{fill:#727272;}
	.st1{fill:#FFFFFF;}
</style>
<circle class="st0" cx="50" cy="50" r="48.4"/>
<path class="st1" d="M77.1,66.9c0,1.9-1.5,3.4-3.3,3.4H26.1c-1.8,0-3.3-1.6-3.3-3.4V33.1c0-1.9,1.5-3.4,3.3-3.4h47.8
	c1.8,0,3.3,1.5,3.3,3.4L77.1,66.9z"/>
<g>
	<path class="st0" d="M60.5,41l6.3,11l6.3,10.9H47.9L54.2,52L60.5,41z"/>
	<path class="st0" d="M40.2,46.7l4.7,8.1l4.7,8.1H30.9l4.7-8.1L40.2,46.7"/>
	<circle class="st0" cx="31.7" cy="40.4" r="4.5"/>
</g>
</svg>
