<?xml version="1.0" encoding="utf-8"?>
<!-- Generator: Adobe Illustrator 21.0.0, SVG Export Plug-In . SVG Version: 6.00 Build 0)  -->
<svg version="1.1" id="Layer_1" xmlns="http://www.w3.org/2000/svg" xmlns:xlink="http://www.w3.org/1999/xlink" x="0px" y="0px"
	 viewBox="0 0 100 100" style="enable-background:new 0 0 100 100;" xml:space="preserve">
<style type="text/css">
	.st0{fill:#727272;}
	.st1{fill:#FFFFFF;}
</style>
<circle class="st0" cx="50.1" cy="50.5" r="48.4"/>
<path class="st1" d="M21.4,53.4L35.5,73c2,2.8,5.9,3.4,8.7,1.4l21.1-15.3c0.9-0.6,1.6-1.4,2.2-2.4c2.6,1.2,5.1,2,7.4,2.4
	c5.7,0.8,8-1.3,8.8-2.6c0.9-1.4,1.8-4.3-1.6-9.2C82,47.2,82,47.2,82,47.1c-2.1-2.9-5.3-5.7-9.1-8c-0.7-0.4-1.5-0.8-2.1-1.3l0,0
	c0.5-3.3-1.7-6.3-5-6.9l-16-2.9c-2.1-0.3-4.2,0.2-5.9,1.4l-21,15.2C20.1,46.8,19.4,50.7,21.4,53.4z M60.9,39.7
	c0.9,1.2,1.1,2.7,0.7,4.1c1.5,1.5,3.5,3,5.5,4.3c0.8,0.5,1.5,0.8,2.2,1.2l1-6.5c0.1,0.1,0.2,0.1,0.3,0.2c3.2,2,6.1,4.4,7.8,6.8
	l0.1,0.1c1.6,2.3,1.5,3.5,1.4,3.9c-0.7,1.1-6.3,1.3-13.9-3.4c-2.3-1.4-4.3-3-5.8-4.6c-0.1,0.1-0.2,0.1-0.3,0.2c-2.1,1.5-4.9,1-6.4-1
	c-1.4-2-1-4.9,1-6.4C56.4,37.1,59.4,37.6,60.9,39.7z"/>
</svg>
