<?xml version="1.0" encoding="utf-8"?>
<!-- Generator: Adobe Illustrator 21.0.0, SVG Export Plug-In . SVG Version: 6.00 Build 0)  -->
<svg version="1.1" id="Layer_1" xmlns="http://www.w3.org/2000/svg" xmlns:xlink="http://www.w3.org/1999/xlink" x="0px" y="0px"
	 viewBox="0 0 100 100" style="enable-background:new 0 0 100 100;" xml:space="preserve">
<style type="text/css">
	.st0{fill:#727272;}
	.st1{fill:#FFFFFF;}
</style>
<circle class="st0" cx="50.1" cy="50.5" r="48.4"/>
<g transform="translate(0,-952.36218)">
	<path class="st1" d="M27.7,974.4v56h42.7v-44H59.7c-0.7,0-1.3-0.6-1.3-1.3v-10.7H27.7z M61,974.4v9.3h9.3L61,974.4z M34.2,991
		L34.2,991h16.1c0.7,0,1.3,0.6,1.4,1.3s-0.6,1.3-1.3,1.4l0,0h-16c-0.7,0-1.4-0.5-1.4-1.3S33.5,991.1,34.2,991z M34.2,998.4
		L34.2,998.4h29.4c0.7,0,1.3,0.6,1.4,1.3c0,0.7-0.6,1.3-1.3,1.4l0,0H34.3c-0.7,0-1.4-0.5-1.4-1.3C32.9,999,33.5,998.4,34.2,998.4z
		 M34.2,1005.7L34.2,1005.7h29.4c0.7,0,1.3,0.6,1.4,1.3s-0.6,1.3-1.3,1.4l0,0H34.3c-0.7,0-1.4-0.5-1.4-1.3S33.5,1005.7,34.2,1005.7z
		 M34.2,1013L34.2,1013h29.4c0.7,0,1.3,0.6,1.4,1.3s-0.6,1.3-1.3,1.4l0,0H34.3c-0.7,0-1.4-0.5-1.4-1.3S33.5,1013.1,34.2,1013z
		 M34.2,1020.4L34.2,1020.4h29.4c0.7,0,1.3,0.6,1.4,1.3c0,0.7-0.6,1.3-1.3,1.4l0,0H34.3c-0.7,0-1.4-0.5-1.4-1.3
		C32.9,1021,33.5,1020.4,34.2,1020.4z"/>
</g>
</svg>
