<?xml version="1.0" encoding="utf-8"?>
<!-- Generator: Adobe Illustrator 21.0.0, SVG Export Plug-In . SVG Version: 6.00 Build 0)  -->
<svg version="1.1" id="Layer_1" xmlns="http://www.w3.org/2000/svg" xmlns:xlink="http://www.w3.org/1999/xlink" x="0px" y="0px"
	 viewBox="0 0 100 100" style="enable-background:new 0 0 100 100;" xml:space="preserve">
<style type="text/css">
	.st0{fill:#727272;}
	.st1{fill:#FFFFFF;}
</style>
<circle class="st0" cx="50.1" cy="50.5" r="48.4"/>
<path class="st1" d="M71,76.4v-44c0-0.5-0.2-1-0.6-1.3l-8.8-8.8c-0.3-0.4-0.8-0.6-1.3-0.6H28.9c-1,0-1.9,0.9-1.9,1.9v52.8
	c0,1,0.9,1.9,1.9,1.9h40.2C70.1,78.3,71,77.4,71,76.4z M49,65.7c-1.4,0-2.5-1.1-2.5-2.5s1.1-2.5,2.5-2.5s2.5,1.1,2.5,2.5
	S50.4,65.7,49,65.7z M52.7,53.6c-1.3,1.2-1.9,1.4-1.9,3.9c0,1-0.9,1.9-1.9,1.9S47,58.5,47,57.5c0-3.5,1.9-5.5,3.1-6.7
	c1.2-1.1,1.9-1.5,1.9-4.1c0-1.2-1.2-2.4-3.1-2.4c-1.8,0-3,0.8-3.2,1.7c-0.2,1-1.3,1.6-2.2,1.4c-1-0.2-1.6-1.3-1.4-2.3
	c0.7-3.1,3.8-4.6,6.8-4.6c3.7,0,7,2.6,7,6.2C55.9,50.4,54,52.5,52.7,53.6z M67.7,34.1h-9.5v-9.5L67.7,34.1z"/>
</svg>
