<?xml version="1.0" encoding="utf-8"?>
<!-- Generator: Adobe Illustrator 21.0.0, SVG Export Plug-In . SVG Version: 6.00 Build 0)  -->
<svg version="1.1" id="Layer_1" xmlns="http://www.w3.org/2000/svg" xmlns:xlink="http://www.w3.org/1999/xlink" x="0px" y="0px"
	 viewBox="0 0 100 100" style="enable-background:new 0 0 100 100;" xml:space="preserve">
<style type="text/css">
	.st0{fill:#727272;}
	.st1{display:none;}
	.st2{display:inline;fill:#FFFFFF;}
	.st3{fill:#FFFFFF;}
</style>
<circle class="st0" cx="50" cy="50.5" r="48.4"/>
<g transform="translate(0,-952.36218)" class="st1">
	<path class="st2" d="M33.3,973.6c-3.3,0-6.3,3-6.3,6.3s3,6.3,6.3,6.3h14.6h13.9H73c-3.3,0-6.3-3-6.3-6.3s3-6.3,6.3-6.3H33.3z
		 M27,984.2v43.1c0,2.7,2.2,4.9,4.9,4.9H73v-44.6H61.8v16.7l-7-4.9l-7,4.9v-16.7H33.3C30.7,987.5,28.4,986.2,27,984.2L27,984.2z"/>
</g>
<g transform="translate(0,-952.36218)">
	<path class="st3" d="M26.1,971.4v62h45.8v-62H26.1z M49,977.3c4.5,0,8.1,3.6,8.1,8.1s-3.6,8.1-8.1,8.1s-8.1-3.6-8.1-8.1
		C40.9,980.9,44.5,977.3,49,977.3z M43.8,993.5c1.5,1,3.3,1.5,5.2,1.5s3.7-0.6,5.2-1.5v10.4l-5.2-4.4l-5.2,4.4V993.5z M34.2,1009.7
		h29.5c0.8,0,1.5,0.7,1.5,1.5s-0.7,1.5-1.5,1.5H34.2c-0.8,0-1.5-0.7-1.5-1.5S33.4,1009.7,34.2,1009.7z M34.2,1016.4h29.5
		c0.8,0,1.5,0.7,1.5,1.5s-0.7,1.5-1.5,1.5H34.2c-0.8,0-1.5-0.7-1.5-1.5S33.4,1016.4,34.2,1016.4z M34.2,1023h29.5
		c0.8,0,1.5,0.7,1.5,1.5c0,0.8-0.7,1.5-1.5,1.5H34.2c-0.8,0-1.5-0.7-1.5-1.5C32.8,1023.7,33.4,1023,34.2,1023z"/>
</g>
</svg>
