<?xml version="1.0" encoding="utf-8"?>
<!-- Generator: Adobe Illustrator 21.0.0, SVG Export Plug-In . SVG Version: 6.00 Build 0)  -->
<svg version="1.1" id="Layer_1" xmlns="http://www.w3.org/2000/svg" xmlns:xlink="http://www.w3.org/1999/xlink" x="0px" y="0px"
	 viewBox="0 0 100 100" style="enable-background:new 0 0 100 100;" xml:space="preserve">
<style type="text/css">
	.st0{fill:#727272;}
	.st1{fill:#FFFFFF;}
</style>
<circle class="st0" cx="50.1" cy="50.5" r="48.4"/>
<g transform="translate(0,-952.36218)">
	<path class="st1" d="M34.1,974.4L24,984.5h10.1V974.4z M36.6,974.4v10.1v1.3c0,0.7-0.6,1.3-1.3,1.3H34H24v40.4h40.4V1017l-2.3,1.7
		l0,0l-2.5,1.8c-0.4,0.3-1,0.3-1.4,0s-0.7-0.8-0.6-1.3l0.5-3l1.2-8.1c0.1-0.4,0.2-0.8,0.4-1.1l4.6-8v-24.7L36.6,974.4L36.6,974.4z
		 M40.4,984.4L40.4,984.4c0.5,0,1.1,0.3,1.2,0.8c0.2,0.5,0.1,1.1-0.3,1.4l-7.6,7.6c-0.5,0.5-1.3,0.5-1.8,0l-3.8-3.8
		c-0.5-0.5-0.5-1.3,0-1.8s1.3-0.5,1.8,0l2.9,2.9l6.7-6.7c0.2-0.2,0.5-0.3,0.7-0.4C40.3,984.4,40.3,984.4,40.4,984.4z M44,990.1
		C44,990.1,44.1,990.1,44,990.1c0.1,0,0.1,0,0.2,0h15.1c0.7,0,1.3,0.6,1.3,1.3s-0.6,1.3-1.3,1.3H44.2c-0.7,0-1.3-0.5-1.3-1.2
		C42.8,990.8,43.4,990.2,44,990.1z M71.3,992l-1.9,3.3l5.7,3.2l1.9-3.3L71.3,992z M40.4,997L40.4,997c0.5,0,1.1,0.3,1.2,0.8
		c0.2,0.5,0.1,1.1-0.3,1.4l-7.6,7.6c-0.5,0.5-1.3,0.5-1.8,0l-3.8-3.8c-0.5-0.5-0.5-1.3,0-1.8s1.3-0.5,1.8,0l2.9,2.9l6.7-6.7
		c0.2-0.2,0.5-0.3,0.7-0.4C40.3,997,40.3,997,40.4,997z M68.1,997.5l-5.7,9.8l5.7,3.1l0,0l5.7-9.8L68.1,997.5
		C68.2,997.5,68.2,997.5,68.1,997.5z M44,1002.8C44,1002.8,44.1,1002.8,44,1002.8c0.1,0,0.1,0,0.2,0h13.9c0.7,0,1.3,0.6,1.3,1.3
		s-0.6,1.3-1.3,1.3H44.2c-0.7,0-1.3-0.5-1.3-1.2C42.8,1003.4,43.4,1002.8,44,1002.8z M40.4,1009.7L40.4,1009.7
		c0.5,0,1.1,0.3,1.2,0.8s0.1,1.1-0.3,1.4l-7.6,7.6c-0.5,0.5-1.3,0.5-1.8,0l-3.8-3.8c-0.5-0.5-0.5-1.3,0-1.8s1.3-0.5,1.8,0l2.9,2.9
		l6.7-6.7c0.2-0.2,0.5-0.3,0.7-0.4C40.3,1009.7,40.3,1009.7,40.4,1009.7z M61.7,1009.8l-1.1,6.9l5.8-4.2L61.7,1009.8z M44,1015.4
		C44,1015.4,44.1,1015.4,44,1015.4c0.1,0,0.1,0,0.2,0h10.7c0.7,0,1.3,0.6,1.3,1.3s-0.6,1.3-1.3,1.3H44.2c-0.7,0-1.3-0.5-1.3-1.2
		C42.8,1016.1,43.4,1015.4,44,1015.4z"/>
</g>
</svg>
