<?xml version="1.0" encoding="utf-8"?>
<!-- Generator: Adobe Illustrator 21.0.0, SVG Export Plug-In . SVG Version: 6.00 Build 0)  -->
<svg version="1.1" id="Layer_1" xmlns="http://www.w3.org/2000/svg" xmlns:xlink="http://www.w3.org/1999/xlink" x="0px" y="0px"
	 viewBox="0 0 100 100" style="enable-background:new 0 0 100 100;" xml:space="preserve">
<style type="text/css">
	.st0{fill:#727272;}
	.st1{fill:#FFFFFF;}
</style>
<circle class="st0" cx="51" cy="51" r="48.4"/>
<path class="st1" d="M76.6,80.5V33.3c0-0.7-0.3-1.3-0.8-1.6L65.1,21.1c-0.3-0.3-0.7-0.5-1.1-0.5c-0.1,0-0.3,0-0.4,0H25.4v60
	L76.6,80.5L76.6,80.5z M33,62.1h27.2v4.1H33V62.1z M70,45.8H33v-4.1h37V45.8z M70,51.6H33v-4.1h37V51.6z M70,57.3H33v-4.1h37V57.3z
	 M72.6,35h-9.8v-9.7L72.6,35z"/>
</svg>
