<?xml version="1.0" encoding="utf-8"?>
<!-- Generator: Adobe Illustrator 21.0.0, SVG Export Plug-In . SVG Version: 6.00 Build 0)  -->
<svg version="1.1" id="Layer_1" xmlns="http://www.w3.org/2000/svg" xmlns:xlink="http://www.w3.org/1999/xlink" x="0px" y="0px"
	 viewBox="0 0 100 100" style="enable-background:new 0 0 100 100;" xml:space="preserve">
<style type="text/css">
	.st0{fill:#727272;}
	.st1{fill:#FFFFFF;}
</style>
<circle class="st0" cx="50.1" cy="50.5" r="48.4"/>
<path class="st1" d="M78.6,55.9c0,0,3.1,5.2-2.4,9.3c0,0,2.5,7.1-7.6,9.3c-3,0.6-6.8,0.6-10.3,0.3c-8.9,0.2-17.7-1-17.7-1l-5.7-24.9
	c1.7-1.1,2.6-2.3,2.9-3c0.1-0.2,0.2-0.5,0.3-0.8l0,0l0,0c0.5-1.2,1.3-2.6,2.5-3.9c5.7-4.4,11.7-20.9,11.7-20.9s-0.9-6,1.9-6
	c2.8,0,9.4,1.9,5.5,14c-4,12.1,0,10.2,0,10.2c0.9-0.2,1.8-0.4,2.6-0.5l0,0c0,0,11.5-2.6,15.8,1.3c3.4,3.1,0.8,7.2,0.8,7.2
	S83.5,50.8,78.6,55.9z"/>
<path class="st1" d="M36.4,72l-4.3-20.6c-0.2-1.1-1.4-2.1-2.6-2.1h-6.1c-1.2,0-2.3,1-2.4,2.2L18.6,72c-0.2,1.2,0.7,2.2,1.9,2.2h14.2
	C35.9,74.2,36.7,73.2,36.4,72z M30.9,71.9c-1.2,0-2.1-0.9-2.1-2.1s0.9-2.1,2.1-2.1c1.2,0,2.1,0.9,2.1,2.1S32.1,71.9,30.9,71.9z"/>
</svg>
