<?xml version="1.0" encoding="utf-8"?>
<!-- Generator: Adobe Illustrator 21.0.0, SVG Export Plug-In . SVG Version: 6.00 Build 0)  -->
<svg version="1.1" id="Layer_1" xmlns="http://www.w3.org/2000/svg" xmlns:xlink="http://www.w3.org/1999/xlink" x="0px" y="0px"
	 viewBox="0 0 100 100" style="enable-background:new 0 0 100 100;" xml:space="preserve">
<style type="text/css">
	.st0{fill:#727272;}
	.st1{fill:#EAEAEA;}
	.st2{fill:#FFFFFF;}
	.st3{fill:none;stroke:#999999;stroke-miterlimit:10;}
</style>
<circle class="st0" cx="50" cy="50" r="48.4"/>
<g>
	<path class="st1" d="M59.4,36.1h12.2L56.2,21.2v11.6C56.2,34.6,57.6,36.1,59.4,36.1z"/>
	<path class="st2" d="M59.4,36.1c-1.8,0-3.2-1.4-3.2-3.2V21.2H31.6c-1.8,0-3.2,1.4-3.2,3.2v51.1c0,1.8,1.4,3.2,3.2,3.2h36.7
		c1.8,0,3.2-1.4,3.2-3.2V36.1H59.4z"/>
</g>
<line class="st3" x1="37.7" y1="58.3" x2="61.4" y2="58.3"/>
<line class="st3" x1="37.7" y1="48.7" x2="61.4" y2="48.7"/>
<line class="st3" x1="37.7" y1="68.2" x2="61.4" y2="68.2"/>
</svg>
