<?xml version="1.0" encoding="utf-8"?>
<!-- Generator: Adobe Illustrator 21.0.0, SVG Export Plug-In . SVG Version: 6.00 Build 0)  -->
<svg version="1.1" id="Layer_1" xmlns="http://www.w3.org/2000/svg" xmlns:xlink="http://www.w3.org/1999/xlink" x="0px" y="0px"
	 viewBox="0 0 100 100" style="enable-background:new 0 0 100 100;" xml:space="preserve">
<style type="text/css">
	.st0{fill:#727272;}
	.st1{fill:#FFFFFF;}
</style>
<circle class="st0" cx="50" cy="50" r="48.4"/>
<path class="st1" d="M76.6,66.8c0,1.9-1.4,3.4-3.2,3.4H25.9c-1.8,0-3.2-1.6-3.2-3.4V33.2c0-1.9,1.4-3.4,3.2-3.4h47.5
	c1.8,0,3.2,1.5,3.2,3.4V66.8z"/>
<g>
	<path class="st0" d="M60.1,41.1L66.3,52l6.3,10.9H47.5L53.8,52L60.1,41.1z"/>
	<path class="st0" d="M39.9,46.8l4.6,8l4.6,8H30.6l4.6-8L39.9,46.8"/>
	<circle class="st0" cx="31.5" cy="40.5" r="4.5"/>
</g>
</svg>
