<?xml version="1.0" encoding="utf-8"?>
<!-- Generator: Adobe Illustrator 21.0.0, SVG Export Plug-In . SVG Version: 6.00 Build 0)  -->
<svg version="1.1" id="Layer_1" xmlns="http://www.w3.org/2000/svg" xmlns:xlink="http://www.w3.org/1999/xlink" x="0px" y="0px"
	 viewBox="0 0 100 100" style="enable-background:new 0 0 100 100;" xml:space="preserve">
<style type="text/css">
	.st0{fill:#727272;}
	.st1{fill:#FFFFFF;}
</style>
<circle class="st0" cx="50" cy="50" r="48.4"/>
<g>
	<path class="st1" d="M56.9,50.9c-0.4-1.5-1.5-3-3.1-4.6c-5.7-5.7-9.6-4-17.8,4.2c-8.3,8.3-10,12.1-4.2,17.8c5.7,5.7,9.6,4,17.8-4.2
		c3.2-3.2,5.4-5.7,6.6-7.9 M50.9,56.9c-1,1.2-2.4,2.6-4.2,4.4C41,67.1,39,69,35,65s-2.1-6,3.7-11.7c5.8-5.8,7.7-7.7,11.7-3.7
		c1,1,1.6,1.9,1.9,2.7"/>
	<path class="st1" d="M43.1,49.1c0.4,1.5,1.5,3,3.1,4.7c5.7,5.7,9.6,4,17.8-4.2c8.3-8.3,10-12.1,4.2-17.8c-5.7-5.7-9.6-4-17.8,4.2
		c-3.1,3.1-5.4,5.8-6.6,8c0,0,0.6-0.3,1.4-0.6c0.4-0.2,0.9-0.3,1.3-0.3c1.3-0.2,2.6,0.2,2.6,0.2c1-1.2,2.4-2.7,4.2-4.4
		C59,32.9,61,31,65,35s2.1,6-3.7,11.7c-5.8,5.8-7.7,7.7-11.7,3.7c-1-1-1.7-1.9-1.9-2.8c0,0-0.6-0.2-1.3-0.2c-0.5,0-1.3,0.3-2,0.8
		C43.6,48.7,43.1,49.1,43.1,49.1z"/>
</g>
</svg>
