<?xml version="1.0" encoding="utf-8"?>
<!-- Generator: Adobe Illustrator 21.0.0, SVG Export Plug-In . SVG Version: 6.00 Build 0)  -->
<svg version="1.1" id="Layer_1" xmlns="http://www.w3.org/2000/svg" xmlns:xlink="http://www.w3.org/1999/xlink" x="0px" y="0px"
	 viewBox="0 0 100 100" style="enable-background:new 0 0 100 100;" xml:space="preserve">
<style type="text/css">
	.st0{fill:#727272;}
	.st1{fill:#FFFFFF;}
</style>
<circle class="st0" cx="51" cy="51" r="48.4"/>
<path class="st1" d="M24.9,24.2v52.4H77V24.2H24.9z M34.8,67l-4.1-4.1l1.9-1.9l2.3,2.3l5.6-5.6l1.9,1.9L34.8,67z M34.8,55.1L30.6,51
	l1.9-1.9l2.3,2.3l5.6-5.6l1.9,1.9L34.8,55.1z M34.8,43.3l-4.1-4.1l1.9-1.9l2.3,2.3l5.6-5.6l1.9,1.9L34.8,43.3z M70.5,64.7H46V61
	h24.5V64.7z M70.5,52.9H46v-3.7h24.5V52.9z M70.5,41H46v-3.7h24.5V41z"/>
</svg>
