<?xml version="1.0" encoding="utf-8"?>
<!-- Generator: Adobe Illustrator 21.0.0, SVG Export Plug-In . SVG Version: 6.00 Build 0)  -->
<svg version="1.1" id="Layer_1" xmlns="http://www.w3.org/2000/svg" xmlns:xlink="http://www.w3.org/1999/xlink" x="0px" y="0px"
	 viewBox="0 0 100 100" style="enable-background:new 0 0 100 100;" xml:space="preserve">
<style type="text/css">
	.st0{fill:#727272;}
	.st1{fill:#FFFFFF;}
</style>
<circle class="st0" cx="50.1" cy="50.5" r="48.4"/>
<path class="st1" d="M68.6,24H29.4c-3.5,0-6.4,2.9-6.4,6.4v5.2h52v-5.2C75,26.9,72.1,24,68.6,24z M63.5,30.7h-1.8v-1.8h1.8V30.7z
	 M67.2,30.7h-1.8v-1.8h1.8V30.7z M70.8,30.7H69v-1.8h1.8V30.7z"/>
<path class="st1" d="M23,36.5v33.1c0,3.5,2.9,6.4,6.4,6.4h39.2c3.5,0,6.4-2.9,6.4-6.4V36.5H23z M31.8,65.6h-3.1v-3.1h3.1V65.6z
	 M31.8,57.6h-3.1v-3.1h3.1V57.6z M31.8,48.9h-3.1v-3.1h3.1V48.9z M69.4,65.6H36.6v-3.1h32.8C69.4,62.5,69.4,65.6,69.4,65.6z
	 M69.4,57.6H36.6v-3.1h32.8C69.4,54.5,69.4,57.6,69.4,57.6z M69.4,48.9H36.6v-3.1h32.8C69.4,45.8,69.4,48.9,69.4,48.9z"/>
</svg>
