<?xml version="1.0" encoding="utf-8"?>
<!-- Generator: Adobe Illustrator 19.1.0, SVG Export Plug-In . SVG Version: 6.00 Build 0)  -->
<svg version="1.1" id="Layer_1" xmlns="http://www.w3.org/2000/svg" xmlns:xlink="http://www.w3.org/1999/xlink" x="0px" y="0px"
	 viewBox="0 0 1000 1000" style="enable-background:new 0 0 1000 1000;" xml:space="preserve">
<style type="text/css">
	.st0{fill:none;}
	.st1{fill:#009CDE;}
	.st2{fill:#FFFFFF;}
	.st3{fill:#0F3572;}
</style>
<g>
	<rect x="996" y="439.1" class="st0" width="0" height="17.5"/>
	<g>
		<g>
			<path class="st1" d="M949.3,364.3c0,96.4-40,174.2-119.9,233.3c-80,59.1-191.7,88.6-335.3,88.6h-79.4L353.8,950H143.9
				l193.8-809.7h284.1c52.9,0,99.1,3.6,138.4,10.9c39.3,7.3,73.4,19.8,102,37.5c28.3,17.8,49.9,40.9,64.7,69.3
				C941.8,286.5,949.3,321.9,949.3,364.3z"/>
			<path class="st2" d="M360.7,958.7H132.9l198-827.2h291c53.2,0,100.3,3.7,140,11c40.2,7.4,75.6,20.4,105,38.7
				c29.5,18.5,52.3,43,67.9,72.7c15.5,29.6,23.3,66.7,23.3,110.4c0,49.4-10.4,94.7-30.9,134.6c-20.5,39.9-51.6,75.5-92.5,105.7
				c-40.7,30.1-90.1,52.9-146.8,67.9C631.4,687.4,566.2,695,494,695h-72.5L360.7,958.7z M155,941.3h191.8l60.9-263.7H494
				c70.7,0,134.4-7.4,189.3-21.9c54.6-14.4,101.9-36.3,140.8-65.1c38.7-28.6,68.1-62.1,87.4-99.6c19.3-37.5,29-80.1,29-126.7
				c0-40.8-7.2-75.2-21.3-102.3c-14.1-26.9-34.8-49.1-61.6-66c-27.5-17.1-60.9-29.3-98.9-36.3C720,152.6,673.9,149,621.8,149H344.6
				L155,941.3z"/>
		</g>
	</g>
	<g>
		<g>
			<path class="st3" d="M856.1,274c0,96.4-40,174.2-119.9,233.3c-80,59.1-191.7,88.6-335.3,88.6h-79.4l-60.9,263.7H50.7L237.5,50
				h291c52.9,0,99.1,3.6,138.4,10.9c39.3,7.3,73.4,19.8,102,37.5c28.3,17.8,49.9,40.9,64.7,69.3C848.6,196.2,856.1,231.6,856.1,274z
				"/>
			<path class="st2" d="M267.5,868.4H39.8L230.6,41.3h298c53.2,0,100.3,3.7,140,11c40.2,7.4,75.6,20.4,105,38.7
				c29.5,18.5,52.3,43,67.9,72.7c15.5,29.6,23.3,66.7,23.3,110.4c0,49.4-10.4,94.7-30.9,134.6c-20.5,39.9-51.6,75.5-92.5,105.7
				c-40.7,30.1-90.1,52.9-146.8,67.9c-56.4,14.9-121.5,22.4-193.8,22.4h-72.5L267.5,868.4z M61.7,851h191.9l60.9-263.7h86.4
				c70.7,0,134.4-7.4,189.3-21.9c54.6-14.4,101.9-36.3,140.8-65.1c38.7-28.6,68.1-62.1,87.4-99.6c19.3-37.5,29-80.1,29-126.7
				c0-40.8-7.2-75.2-21.3-102.3c-14.1-26.9-34.8-49.1-61.6-66c-27.5-17.1-60.8-29.3-98.9-36.3c-38.7-7.1-84.7-10.7-136.9-10.7H244.5
				L61.7,851z"/>
		</g>
	</g>
	<g>
		<path class="st2" d="M640.4,302.9c-1.5,24.8-6.6,42.9-21.6,63.9c-15.1,21-32.6,34.7-56.2,45.8c-14.3,6.7-29.2,11.1-44.7,13.3
			c-15.5,2.2-34.1,3.3-55.7,3.3H357.7l58.4-209.4h94.7c24.1,0,43.6,0.4,58.3,3.7c14.7,3.2,26.6,7.6,35.7,13.1
			c12.5,7.4,22.6,16.5,28.5,27.8C640.4,278,641.4,286.7,640.4,302.9z"/>
	</g>
</g>
</svg>
