<?xml version="1.0" encoding="utf-8"?>
<!-- Generator: Adobe Illustrator 21.0.0, SVG Export Plug-In . SVG Version: 6.00 Build 0)  -->
<svg version="1.1" id="Layer_1" xmlns="http://www.w3.org/2000/svg" xmlns:xlink="http://www.w3.org/1999/xlink" x="0px" y="0px"
	 viewBox="0 0 100 100" style="enable-background:new 0 0 100 100;" xml:space="preserve">
<style type="text/css">
	.st0{fill:#727272;}
	.st1{fill:#FFFFFF;}
</style>
<circle class="st0" cx="50.1" cy="50.5" r="48.4"/>
<path class="st1" d="M71.2,54.7V31.5c0-0.3-0.4-0.5-0.8-0.5H53.3h-2.2h-9.2h-2.2H29.4c-0.4,0-0.8,0.3-0.8,0.5v1.4v2.2l0,0v9.4l0,0
	v2.2v8c0,0.4,0.4,0.5,0.8,0.5h1h3.1h5.7h3.4h0.6h15.6h2.8h8.7C70.7,55.4,71.2,55.1,71.2,54.7z M72.8,28.7c0.5,0,0.9,0.3,0.9,0.6V57
	c0,0.1,0,0.1,0,0.2l0,0L81,67.8c0,0.5-0.4,1.8-1,1.8H19.7c-0.5,0-1-1.2-1-1.8l7.2-10.7c0-0.1,0-0.1,0-0.1l0,0l-0.1-27.5
	c0,0,0.1-0.8,0.8-0.8C27.4,28.6,72.8,28.7,72.8,28.7z"/>
<rect x="31.3" y="33.5" class="st1" width="36.5" height="5.1"/>
<polygon class="st1" points="66.4,46.5 64.3,47.5 65.9,50.6 64.5,51.3 62.9,48.3 60.9,49.3 60.1,41 "/>
<path class="st1" d="M54.9,47.2L54.9,47.2L54.9,47.2L54.9,47.2z M55.4,41.1v11.5h-24V41.1H55.4z M45.3,47.2
	C45.3,47.2,45.4,47.2,45.3,47.2L45.3,47.2C45.4,47.2,45.3,47.2,45.3,47.2z"/>
</svg>
