<?xml version="1.0" encoding="utf-8"?>
<!-- Generator: Adobe Illustrator 21.0.0, SVG Export Plug-In . SVG Version: 6.00 Build 0)  -->
<svg version="1.1" id="Layer_1" xmlns="http://www.w3.org/2000/svg" xmlns:xlink="http://www.w3.org/1999/xlink" x="0px" y="0px"
	 viewBox="0 0 100 100" style="enable-background:new 0 0 100 100;" xml:space="preserve">
<style type="text/css">
	.st0{fill:#727272;}
	.st1{fill:#FFFFFF;}
</style>
<circle class="st0" cx="50.1" cy="50.5" r="48.4"/>
<g>
	<g>
		<g>
			<path class="st1" d="M81.1,30.9c0-1.3-1.1-2.4-2.4-2.4H48.4c-0.9,0-1.7-1.7-1.7-2.4v-0.3c0-1.4-1.1-2.6-2.6-2.6h-16
				c-1.4,0-2.5,1.2-2.5,2.6v0.3c0,0.7-0.7,2.4-1.7,2.4l0,0c-1.3,0-2.4,1.1-2.4,2.4v12.4h-5.2c0,0-2.3-0.1-1.5,2.6l5.4,27.9
				c0,1.4,1,2.5,2.4,2.5h57.2c1.4,0,1.2-2.5,1.2-2.5L81.1,30.9z M78.2,46.9L78.2,46.9v28l-5.4-30.1c-0.5-1.7-2.3-1.5-2.3-1.5h-46
				v-9.5h53.7V46.9z"/>
		</g>
	</g>
</g>
</svg>
