<?xml version="1.0" encoding="utf-8"?>
<!-- Generator: Adobe Illustrator 21.0.0, SVG Export Plug-In . SVG Version: 6.00 Build 0)  -->
<svg version="1.1" id="Layer_1" xmlns="http://www.w3.org/2000/svg" xmlns:xlink="http://www.w3.org/1999/xlink" x="0px" y="0px"
	 viewBox="0 0 100 100" style="enable-background:new 0 0 100 100;" xml:space="preserve">
<style type="text/css">
	.st0{fill:#727272;}
	.st1{fill:#FFFFFF;}
</style>
<circle class="st0" cx="50.1" cy="50.5" r="48.4"/>
<g>
	<path class="st1" d="M76.1,25.9h-2.6v1.6v1.6v5.7v1.6V38h2.6c2.2,0,3.8-1.8,3.8-3.8v-4.6C79.9,27.7,78.1,25.9,76.1,25.9z"/>
	<path class="st1" d="M76.1,41.6h-2.6v1.6v1.6v5.7v1.6v1.6h2.6c2.2,0,3.8-1.8,3.8-3.8v-4.8C79.9,43.4,78.1,41.6,76.1,41.6z"/>
	<path class="st1" d="M76.1,57.2h-2.6v1.6v1.6v5.7v1.6v1.6h2.6c2.2,0,3.8-1.8,3.8-3.8v-4.4C79.9,59,78.1,57.2,76.1,57.2z"/>
</g>
<path class="st1" d="M65.4,21H31c-2.4,0-4.5,1.9-4.7,4.3h-4.6v3.9h4.5v8h-4.5v3.9h4.5v8h-4.5V53h4.5v7.7h-4.5v3.9h4.5v7.6h-4.5v3.9
	h4.6c0.2,2.4,2.3,4.3,4.7,4.3h34.5c2.6,0,4.8-2.2,4.8-4.8V26C70.2,23.2,68,21,65.4,21z"/>
</svg>
