<?xml version="1.0" encoding="utf-8"?>
<!-- Generator: Adobe Illustrator 21.0.0, SVG Export Plug-In . SVG Version: 6.00 Build 0)  -->
<svg version="1.1" id="Layer_1" xmlns="http://www.w3.org/2000/svg" xmlns:xlink="http://www.w3.org/1999/xlink" x="0px" y="0px"
	 viewBox="0 0 100 100" style="enable-background:new 0 0 100 100;" xml:space="preserve">
<style type="text/css">
	.st0{fill:#727272;}
	.st1{display:none;}
	.st2{display:inline;fill:#FFFFFF;}
	.st3{fill:#FFFFFF;}
</style>
<circle class="st0" cx="50" cy="50.5" r="48.4"/>
<g transform="translate(0,-952.36218)" class="st1">
	<path class="st2" d="M33.3,973.6c-3.3,0-6.3,3-6.3,6.3s3,6.3,6.3,6.3h14.6h13.9H73c-3.3,0-6.3-3-6.3-6.3s3-6.3,6.3-6.3H33.3z
		 M27,984.2v43.1c0,2.7,2.2,4.9,4.9,4.9H73v-44.6H61.8v16.7l-7-4.9l-7,4.9v-16.7H33.3C30.7,987.5,28.4,986.2,27,984.2L27,984.2z"/>
</g>
<g transform="translate(0,-952.36218)">
	<path class="st3" d="M34.3,977.7v12H65v17.9l6.7,6.1v-6.7H77v-29.3H34.3z M21,992.4v28h5.3v6.7l7.3-6.7h28.7v-28L21,992.4L21,992.4
		z M29.7,1003.7c1.5,0,2.7,1.2,2.7,2.7s-1.2,2.7-2.7,2.7s-2.7-1.2-2.7-2.7S28.2,1003.7,29.7,1003.7z M41.7,1003.7
		c1.5,0,2.7,1.2,2.7,2.7s-1.2,2.7-2.7,2.7s-2.7-1.2-2.7-2.7S40.2,1003.7,41.7,1003.7z M53.7,1003.7c1.5,0,2.7,1.2,2.7,2.7
		s-1.2,2.7-2.7,2.7s-2.7-1.2-2.7-2.7S52.2,1003.7,53.7,1003.7z"/>
</g>
</svg>
