<?xml version="1.0" encoding="utf-8"?>
<!-- Generator: Adobe Illustrator 21.0.0, SVG Export Plug-In . SVG Version: 6.00 Build 0)  -->
<svg version="1.1" id="Layer_1" xmlns="http://www.w3.org/2000/svg" xmlns:xlink="http://www.w3.org/1999/xlink" x="0px" y="0px"
	 viewBox="0 0 100 100" style="enable-background:new 0 0 100 100;" xml:space="preserve">
<style type="text/css">
	.st0{fill:#727272;}
	.st1{fill:#FFFFFF;}
</style>
<circle class="st0" cx="50.1" cy="50.5" r="48.4"/>
<circle class="st1" cx="57.2" cy="36.4" r="4"/>
<path class="st1" d="M76.6,31.1H73v-3.5c0-0.8-0.6-1.4-1.4-1.4H23.2c-0.8,0-1.4,0.6-1.4,1.4V67c0,0.8,0.6,1.4,1.4,1.4h3.6v3.5
	c0,0.8,0.6,1.4,1.4,1.4h48.4c0.8,0,1.4-0.6,1.4-1.4V32.5C78,31.8,77.4,31.1,76.6,31.1z M24.6,29h45.6v27.6l-13-12
	c-0.5-0.5-1.2-0.5-1.7,0l-7.1,6.2L39,39.1c-0.2-0.3-0.6-0.5-0.9-0.5c-0.4,0-0.7,0.1-1,0.4L24.7,51.8L24.6,29L24.6,29z M75.2,70.5
	H29.6v-2.2h42c0.8,0,1.4-0.6,1.4-1.4v-33h2.2V70.5L75.2,70.5z"/>
</svg>
