<?xml version="1.0" encoding="utf-8"?>
<!-- Generator: Adobe Illustrator 21.0.0, SVG Export Plug-In . SVG Version: 6.00 Build 0)  -->
<svg version="1.1" id="Layer_1" xmlns="http://www.w3.org/2000/svg" xmlns:xlink="http://www.w3.org/1999/xlink" x="0px" y="0px"
	 viewBox="0 0 100 100" style="enable-background:new 0 0 100 100;" xml:space="preserve">
<style type="text/css">
	.st0{fill:#727272;}
	.st1{fill:#FFFFFF;}
</style>
<circle class="st0" cx="50.1" cy="50.5" r="48.4"/>
<g>
	<path class="st1" d="M64,35c-4.3-4.3-11.2-4.1-15.3,0.4c-3.6,3.9-3.7,10.1-0.1,14c3.7,4.3,10,4.8,14.3,1.6c0.1-0.1,0.4-0.1,0.5,0
		l2.2,2.2c0.1,0.1,0.1,0.3,0.1,0.4c-0.2,0.8,0,1.8,0.7,2.5l8.2,8.1c0.9,0.9,2.2,1,3.3,0.4c1.4-1,1.6-2.9,0.4-4L70,52.3
		c-0.7-0.7-1.6-0.9-2.5-0.7c-0.1,0-0.3,0-0.4-0.1L65,49.4c-0.1-0.1-0.1-0.4,0-0.6C68.1,44.7,67.8,38.8,64,35z M50.6,48.4
		c-3.3-3.3-3.3-8.5,0-11.8s8.5-3.3,11.8,0s3.3,8.5,0,11.8C59.2,51.6,53.9,51.6,50.6,48.4z"/>
	<path class="st1" d="M64.8,57.6c-0.9-0.9-1.4-2.2-1.4-3.4c0-0.1,0-0.1-0.1-0.1L63,53.7c-0.1-0.1-0.1-0.1-0.2,0
		c-1.9,1-4,1.6-6.3,1.6c-2.2,0-4.3-0.5-6.1-1.6c-0.4-0.2-0.7-0.3-1.1-0.3H36c-0.6,0-1.1-0.5-1.1-1.2c0-0.6,0.5-1,1.1-1h10.3
		c0.3,0,0.5-0.4,0.3-0.7c-0.4-0.4-0.8-1-1-1.3c-1-1.7-1.6-3.7-1.9-5.7c0-0.3-0.2-0.5-0.5-0.5H36c-0.6,0-1.1-0.4-1.1-1
		c0-0.7,0.5-1.2,1.1-1.2h7.4c0.3,0,0.5-0.2,0.6-0.5c0.3-1.9,1-3.7,2.2-5.4c0.2-0.3,0.9-1,1.5-1.6c0.2-0.2,0.1-0.6-0.3-0.6H36
		c-0.6,0-1.1-0.4-1.1-1c0-0.7,0.5-1.2,1.1-1.2h15.9c0.1,0,0.2,0,0.4-0.1c1.3-0.4,2.8-0.7,4.3-0.7c3.4,0,6.7,1.3,9,3.7
		c1.6,1.6,2.6,3.4,3.2,5.5c0.1,0.3,0.5,0.2,0.5-0.1V24.3c0-0.5-0.4-1-1-1H28c-0.5,0-1,0.4-1,1v41.8c0,0.4,0.1,0.8,0.4,1.1l8.6,8.6
		c0.3,0.3,0.7,0.4,1.1,0.4h31.2c0.5,0,1-0.4,1-1V62.3c0-0.1-0.1-0.2-0.1-0.3L64.8,57.6z M39.2,72.8c0,0.5-0.6,0.7-1,0.4l-7.5-7.5
		c-0.4-0.4-0.1-1,0.4-1h7.6c0.3,0,0.6,0.2,0.6,0.6L39.2,72.8L39.2,72.8z"/>
	<path class="st1" d="M69.1,44.7c-0.2,1.4-0.7,2.8-1.4,4c-0.1,0.1,0,0.1,0,0.2l0.3,0.3c0.1,0.1,0.1,0.1,0.1,0.1l0,0
		c0.3,0,0.6,0,0.9,0.1c0.1,0,0.2-0.1,0.2-0.2L69.1,44.7C69.3,44.6,69.1,44.6,69.1,44.7z"/>
</g>
</svg>
