<?xml version="1.0" encoding="utf-8"?>
<!-- Generator: Adobe Illustrator 21.0.0, SVG Export Plug-In . SVG Version: 6.00 Build 0)  -->
<svg version="1.1" id="Layer_1" xmlns="http://www.w3.org/2000/svg" xmlns:xlink="http://www.w3.org/1999/xlink" x="0px" y="0px"
	 viewBox="0 0 100 100" style="enable-background:new 0 0 100 100;" xml:space="preserve">
<style type="text/css">
	.st0{fill:#727272;}
	.st1{fill:#FFFFFF;}
</style>
<circle class="st0" cx="50.1" cy="50.5" r="48.4"/>
<path class="st1" d="M19.2,34.1c0.2-1.7,1-3,2.7-3.7c0.8-0.3,1.5-0.4,2.3-0.4s1.6,0.1,2.3,0.4c1.7,0.7,2.5,1.9,2.7,3.7
	c0,0.3,0,0.5,0,0.8c0,1.8-0.4,3.5-1.2,5.1c-0.4,0.8-0.9,1.5-1.5,2.1c-0.7,0.7-1.5,1-2.3,0.9c-0.8,0-1.7-0.3-2.3-0.9
	c-0.6-0.6-1.2-1.3-1.5-2.1c-0.7-1.6-1.1-3.3-1.2-5.1C19.2,34.6,19.2,34.4,19.2,34.1z"/>
<path class="st1" d="M84.7,64.2c-0.3-0.1-0.6-0.1-0.9-0.1V36.4c0.3,0,0.5-0.1,0.8-0.1c0.9-0.1,1.5-0.8,1.4-1.7c0-1-0.7-1.5-1.8-1.5
	c-6.5,0-12.9,0-19.4,0h-1v-1.6c0-0.5,0-1,0-1.4c0-1.1-1-1.8-2-1.6c-0.8,0.2-1.2,0.8-1.3,1.8c0,0.9,0,1.8,0,2.8H48.7
	c-3,0-5.9,0-8.9,0c-0.9,0-1.6,0.7-1.7,1.6c0,0.8,0.6,1.5,1.5,1.6c0.2,0,0.5,0.1,0.7,0.1v0.8c0,0.5,0,3.5,0,7.4l8.4-2.1
	c2.8-0.7,5.6,1,6.4,3.8l0.3,1.3c0.7,2.8-1,5.6-3.8,6.4l-11.3,2.9c0,4.1,0,7.3,0,7.3c-0.2,0-0.4,0-0.5,0C38.7,64.3,38,65,38,65.9
	s0.8,1.6,1.9,1.6c6.5,0,12.9,0,19.4,0h4.3h19.8c0.3,0,0.6,0,0.9,0c0.8-0.1,1.4-0.7,1.5-1.5C86,65,85.6,64.4,84.7,64.2z"/>
<path class="st1" d="M50.5,51.3c-0.6,0.2-1.2,0.4-1.8,0.6c-1.9,0.5-3.7,0.9-5.6,1.4c-0.9,0.2-1.8,0.4-2.7,0.6
	c-0.5,0.1-1.1,0-1.6-0.1c-0.1,0-0.2,0-0.2,0c-0.1,0-0.1,0-0.2,0c-1.4-0.3-2.7-0.7-4-1.2c-0.4-0.1-0.8-0.3-1.1-0.4
	c0,0.1-0.1,0.3-0.1,0.6c0,0.2-0.1,0.4-0.1,0.7c-0.1,2.1-0.1,4.3-0.2,6.4c0,0,0-0.1-0.1-0.1c0,0.6-0.1,1.1-0.1,1.7
	c-0.1,1.9-0.2,3.9-0.2,5.9c-0.1,2.6-1.9,4.4-4.4,4.4c-1.1,0-2.2,0-3.4,0c-0.9,0-1.7,0-2.6,0c-2.6,0-4.3-1.4-4.9-4
	c-0.1-0.2-0.1-0.3-0.4-0.4S15.9,67,15.9,67c-0.3-0.1-0.6-0.3-0.9-0.4c-0.4-0.3-0.7-0.6-1-1s-0.3-0.8-0.4-1.3
	c-0.2-2.8-0.3-5.6-0.3-8.4c0-0.1,0-0.3,0-0.4c0-0.6,0-1.2,0-1.8c0-1.5,0.1-2.9,0.1-4.3c0-0.7,0.1-1.4,0.1-2.2c0-0.3,0.1-0.5,0.2-0.8
	c0-0.1,0.1-0.1,0.1-0.2c0-0.1,0.1-0.1,0.2-0.2c0.4-0.4,0.8-0.6,1.3-0.8c0.8-0.3,3.7-1.1,4.1-1.3c0.2-0.1,0.4-0.1,0.6-0.2
	c0,0.1,0,0.2,0,0.4c-0.1,1.5-0.2,2.9-0.3,4.5c0.4-0.2,0.8-0.4,1.1-0.7c0.8-0.5,1.5-0.9,2.2-1.3l1.2-0.7c0.5,0.3,1,0.6,1.5,0.9
	c0.7,0.4,1.5,0.9,2.3,1.3c0.3,0.2,0.5,0.3,0.8,0.5c-0.1-1.1-0.2-2.2-0.3-3.2c0-0.6-0.1-1.2-0.1-1.8c0.4,0.2,2.2,0.7,2.6,0.8
	c0.3,0,3,1,3.3,1.2c0.6,0.3,1.2,0.6,1.8,0.8c0.3,0.1,0.7,0.3,1,0.4h0.1c0.7,0.3,1.4,0.4,2.2,0.6c0.6,0.1,1.2,0,1.7-0.1
	c2.5-0.6,4.9-1.3,7.4-2c1.7-0.5,3.4,0.3,4,1.9C53,49,52.2,50.7,50.5,51.3z"/>
</svg>
