<?xml version="1.0" encoding="utf-8"?>
<!-- Generator: Adobe Illustrator 21.0.0, SVG Export Plug-In . SVG Version: 6.00 Build 0)  -->
<svg version="1.1" id="Layer_1" xmlns="http://www.w3.org/2000/svg" xmlns:xlink="http://www.w3.org/1999/xlink" x="0px" y="0px"
	 viewBox="0 0 20 20" style="enable-background:new 0 0 20 20;" xml:space="preserve">
<style type="text/css">
	.st0{fill:none;}
	.st1{fill:#D32F2F;}
	.st2{fill:#FFFFFF;}
</style>
<rect x="0" class="st0" width="20" height="20"/>
<path class="st1" d="M10,0H2.5v10v10l7.5-5l7.5,5V10V0H10z"/>
<path class="st2" d="M11.3,7.8l1.9-1.9c0.4-0.4,0.4-0.9,0-1.3c-0.4-0.4-0.9-0.4-1.3,0L10,6.5L8.1,4.6c-0.4-0.4-0.9-0.4-1.3,0
	C6.5,5,6.5,5.5,6.8,5.9l1.9,1.9L6.8,9.6c-0.4,0.4-0.4,0.9,0,1.3c0.2,0.2,0.4,0.3,0.6,0.3c0.2,0,0.5-0.1,0.6-0.3L10,9.1l1.9,1.9
	c0.2,0.2,0.4,0.3,0.6,0.3s0.5-0.1,0.6-0.3c0.4-0.4,0.4-0.9,0-1.3L11.3,7.8z"/>
</svg>
