<?xml version="1.0" encoding="utf-8"?>
<!-- Generator: Adobe Illustrator 21.0.0, SVG Export Plug-In . SVG Version: 6.00 Build 0)  -->
<svg version="1.1" id="Layer_1" xmlns="http://www.w3.org/2000/svg" xmlns:xlink="http://www.w3.org/1999/xlink" x="0px" y="0px"
	 viewBox="0 0 20 20" style="enable-background:new 0 0 20 20;" xml:space="preserve">
<style type="text/css">
	.st0{fill:none;}
	.st1{fill:#3D9B35;}
	.st2{fill:#FFFFFF;}
</style>
<rect class="st0" width="20" height="20"/>
<path class="st1" d="M10,0H2.5v10v10l7.5-5l7.5,5V10V0H10z"/>
<path class="st2" d="M8.9,11L8.9,11c-0.3,0-0.5-0.1-0.7-0.3L5.6,8.1c-0.4-0.4-0.4-1,0-1.4c0.4-0.4,1-0.4,1.4,0l1.9,1.9L13,4.5
	c0.4-0.4,1-0.4,1.4,0c0.4,0.4,0.4,1,0,1.4l-4.8,4.8C9.5,10.9,9.2,11,8.9,11z"/>
</svg>
